# xmcd
#
# Track frame offsets:
#	182
#	19932
#	41012
#	62172
#	75182
#	91590
#	102120
#	115695
#	133477
#	145180
#	170530
#	185792
#	200210
#	211577
#	228945
#	239512
#	250725
#	263237
#	284380
#	293850
#	307435
#
# Disc length: 4344
#
# Revision: 1
# Processed by: cddbd v1.5.1PL0 Copyright (c) Steve Scherf et al.
# Submitted via: dBpowerAMP V4.0
# Normalized: r0:TDELIM( - )
#
DISCID=3810f615
DTITLE=Various Artist - The Rhythms Orleans Sampler
DYEAR=1997
DGENRE=Blues
TTITLE0=Coco Robicheaux - Working Man
TTITLE1=Mighty Sam McClain - Backstreets
TTITLE2=Mighty Sam McClain - Pray
TTITLE3=Rockie Charles - Born For You
TTITLE4=Robert Lowery - If I Had Possession
TTITLE5=Little Freddy King - The Great Chinese
TTITLE6=Danny Barker - Save The Bones
TTITLE7=Allen Toussaint - Rest of the Way
TTITLE8=Ironing Board Sam - Ironing On The Baby Grand
TTITLE9=Original Pinstripe Brass Band - I Ate The Apple Tree
TTITLE10=Robert Lowery - Moje Hand
TTITLE11=C P Love - Stubborn Girl
TTITLE12=Guitar Slim Jr - Well I Done Got Over It
TTITLE13=Robert Lowery - Honey Babe
TTITLE14=Guitar Slim Jr - Sufferin' Mind
TTITLE15=Johnny J and The Hitmen - Last To Leave
TTITLE16=Little Freddie King - Cleo's Back
TTITLE17=Original Pinstripe Brass Band - Last Chance To Dance
TTITLE18=Rockie Charles - Festis Believe In Justice
TTITLE19=Johnny J and The Hitmen - J-Walkin'
TTITLE20=Aaron Neville - Lady In Blue
EXTD=Compiled by Brian Wise, Mastered at Woodstock Studios.  Rhythms  PO Box 5060 Hughesdale, Melbourne, Australia 3166.
EXTT0=
EXTT1=
EXTT2=
EXTT3=
EXTT4=
EXTT5=
EXTT6=
EXTT7=
EXTT8=
EXTT9=
EXTT10=
EXTT11=
EXTT12=
EXTT13=
EXTT14=
EXTT15=
EXTT16=
EXTT17=
EXTT18=
EXTT19=
EXTT20=
PLAYORDER=
